<svg xmlns="http://www.w3.org/2000/svg" viewBox="0 0 500 67.98"><defs><style>.a{fill:#fff;}</style></defs><title>Artboard 2</title><path d="M227.5,28.4c-.75-1.54-1.37-2.82-1.86-3.85C226.13,25.58,226.75,26.86,227.5,28.4Zm-3-6.19c.16.36.37.82.65,1.39-.28-.57-.49-1-.65-1.39-.63-1.4-1.55-3.57-2.74-6.49C223,18.64,223.91,20.81,224.54,22.21ZM187.86,41c-.22-3.09-.32-6.24-.32-9.44,0-.06,0-.31,0-.75s0-1,0-1.85q0-.81,0-1.86,0,1,0,1.86c0,.8,0,1.42,0,1.85s0,.69,0,.75C187.54,34.76,187.64,37.91,187.86,41ZM166.3,20.78h0l-.6,1.6Zm0,22.36h0l-.58-1.47ZM172,33.92c-.05,2.58-.16,5.37-.33,8.35h0C171.83,39.29,171.94,36.5,172,33.92Zm16,9.26c.09.94.19,2,.25,2.86h0C188.23,45.18,188.13,44.12,188,43.18ZM166,17.26h0a19.14,19.14,0,0,0-2.61-1.4A19.14,19.14,0,0,1,166,17.26Zm-5.19,31.79a23,23,0,0,1-7.13,1.05,21.3,21.3,0,0,0,10.36-2.41c.65-.33,1.29-.7,1.94-1.1h0c-.65.4-1.29.77-1.94,1.1A22.9,22.9,0,0,1,160.85,49.05ZM189,25.73a9,9,0,0,1,1.56-.85l.22-.08-.22.08A9,9,0,0,0,189,25.73ZM204.32,61q-.56-.08-1.2-.21h0Q203.77,60.91,204.32,61Zm-.08,6.14h0a12.24,12.24,0,0,0,2.76-.32A12.24,12.24,0,0,1,204.24,67.13ZM217,59.66q1.06-1.24,2.22-2.73Q218,58.42,217,59.66Zm18.51-29.23a176.87,176.87,0,0,1-10.61,18.5h0a176.87,176.87,0,0,0,10.61-18.5,102.21,102.21,0,0,0,6.43-15.87h0A102.21,102.21,0,0,1,235.46,30.43Z"/><path d="M325.84-.31a23.16,23.16,0,0,1,4.4.7,23.16,23.16,0,0,0-4.4-.7c-.82-.06-1.67-.09-2.56-.09h0C324.17-.4,325-.37,325.84-.31ZM301.12,31.94c0-.63,0-1.25-.1-1.87.06.62.1,1.24.1,1.87Zm21.22-8c0-1.6,0-2.88,0-3.85C322.35,21,322.34,22.32,322.34,23.92Zm.56,19.4q-.28-3.91-.42-8.34.13,4.43.42,8.34l.1,1.27Zm1.3-38.11a3.62,3.62,0,0,1,1.7-.74,6.36,6.36,0,0,1,1.11-.1h0a6.36,6.36,0,0,0-1.11.1A3.62,3.62,0,0,0,324.2,5.21ZM321-.32a24,24,0,0,0-3.61.51A24,24,0,0,1,321-.32ZM280.11,47a21.45,21.45,0,0,1-4-.36A21.45,21.45,0,0,0,280.11,47Zm-4-29.75a18.54,18.54,0,0,1,4.21-.52h0A18.54,18.54,0,0,0,276.15,17.26Zm6.16-3.42q-1.06-.09-2.16-.09h0Q281.25,13.75,282.31,13.84Zm-5.62.13a29.16,29.16,0,0,1,3.41-.22,29.16,29.16,0,0,0-3.41.22,23.77,23.77,0,0,0-3.3.64A23.77,23.77,0,0,1,276.69,14Zm15.59,32.71a20.2,20.2,0,0,0,4.73-4A20.2,20.2,0,0,1,292.28,46.68Zm6.59-6.6A17.69,17.69,0,0,0,300,37.89,17.69,17.69,0,0,1,298.87,40.08Zm24.41,8.86c-.09-1-.15-1.93-.17-2.91,0,1,.08,1.95.17,2.91Z"/><path d="M406.23,28.15h.09a.12.12,0,0,1,.09,0,.12.12,0,0,0-.09,0h-.09l-.28-.1ZM402.35,17.2l-1.27.17Zm-1.91.27-1.23.23Zm-2.34.5.53-.14-.53.14a27.87,27.87,0,0,0-3.72,1.29A27.87,27.87,0,0,1,398.1,18Zm3.65,9.2a39.19,39.19,0,0,0-5.35-.36A39.19,39.19,0,0,1,401.75,27.17Zm58.48-8.34-.91,1.52c-.41.72-.83,1.46-1.25,2.22q-1.31,2.36-2.71,5.07,1.41-2.72,2.71-5.07c.42-.76.84-1.5,1.25-2.22l.91-1.52ZM450.41,37.7c-.7,1.5-1.3,2.82-1.79,4s-.88,2.12-1.16,2.92L447,46l.44-1.43c.28-.8.67-1.77,1.16-2.92s1.09-2.47,1.79-4q2.08-4.43,4-8.21Q452.5,33.29,450.41,37.7ZM439.16,17.59c.7-.07,1.41-.13,2.22-.16-.81,0-1.52.09-2.22.16-.92.09-1.81.21-2.85.32C437.35,17.8,438.24,17.68,439.16,17.59Zm1.2,4.65c-.35.82-.74,1.71-1.17,2.66-.54,1.17-1.13,2.45-1.78,3.8.65-1.35,1.24-2.63,1.78-3.8C439.62,24,440,23.06,440.36,22.24Zm47.1,15.46c-.7,1.5-1.3,2.82-1.79,4s-.88,2.12-1.16,2.92L484.23,46l.28-1.42c.28-.8.67-1.77,1.16-2.92s1.09-2.47,1.79-4q2.1-4.43,4-8.21Q489.55,33.29,487.46,37.7Zm-13.41-8.15q1.21-2.52,2.19-4.65l.79-1.77-.79,1.77q-1,2.13-2.19,4.65t-2.49,4.93Q472.76,32.16,474.05,29.55Zm-.69-11.64c1.42-.15,2.25-.26,3.32-.33C475.61,17.65,474.78,17.76,473.36,17.91Zm19.05,9.73c.63-1.21,1.23-2.36,1.83-3.46C493.64,25.28,493,26.43,492.41,27.64ZM422,32.19V30.75c0-.12,0-.25,0-.4,0,.15,0,.28,0,.4v1.44q0,5,.36,9.45Q422,37.14,422,32.19Zm.11-7.45c0,.37,0,.87,0,1.5,0-.63,0-1.13,0-1.5a14.66,14.66,0,0,0-.3-3.35A14.66,14.66,0,0,1,422.07,24.74Zm-1.3-5.58a7,7,0,0,1,.6,1.07,7,7,0,0,0-.6-1.07,7.38,7.38,0,0,0-.67-.83A7.38,7.38,0,0,1,420.77,19.16Zm-8.95-4.95c.52.11,1,.23,1.52.37a19.84,19.84,0,0,1,2.73,1,19.84,19.84,0,0,0-2.73-1c-.49-.14-1-.26-1.52-.37a31.22,31.22,0,0,0-3.24-.5A31.22,31.22,0,0,1,411.82,14.21Zm-35,18.62c0-2,.08-4,.15-6,0-.54,0-1.06,0-1.56,0,.5,0,1,0,1.56-.07,2-.11,4-.15,6Zm.26-8.95c0-.9.09-1.72.13-2.46C377.17,22.16,377.12,23,377.08,23.88ZM372.65,0l6.5,9.2h0L372.65,0l-1,1ZM374,63a14.79,14.79,0,0,1-1.77,1.45A14.79,14.79,0,0,0,374,63l1.19-1.51ZM375.71,61a5.25,5.25,0,0,0,1-1.83c.05-.17.09-.37.13-.57,0,.2-.08.4-.13.57A5.25,5.25,0,0,1,375.71,61Zm1.16-2.67a18.65,18.65,0,0,0,.2-3.07c0-.68,0-1.28,0-1.79,0-.82,0-1.64,0-2.46l-.1-3.3q0-1.55-.06-2.88,0,1.34.06,2.88L377,51c0,.82,0,1.64,0,2.46,0,.51,0,1.11,0,1.79A18.65,18.65,0,0,1,376.87,58.3Zm21-8.93a22.07,22.07,0,0,1-3,.2,22.07,22.07,0,0,0,3-.2,18.62,18.62,0,0,0,7.93-3h0A18.62,18.62,0,0,1,397.88,49.37Z"/><path d="M94.38,17.26a10.4,10.4,0,0,1,3-.45A10.4,10.4,0,0,0,94.38,17.26Zm11.84,26.52c.43-.26.87-.54,1.29-.83a21.11,21.11,0,0,0,1.81-1.46A21.11,21.11,0,0,1,107.51,43c-.42.29-.86.57-1.29.83a19.67,19.67,0,0,1-4.09,1.84A19.67,19.67,0,0,0,106.22,43.78Zm-5.75,2.27a20.4,20.4,0,0,1-2.73.4A20.4,20.4,0,0,0,100.47,46.05ZM108,17.6c.37.31.73.63,1.08,1-.35-.34-.71-.66-1.08-1A16.13,16.13,0,0,0,105.57,16,16.13,16.13,0,0,1,108,17.6ZM82.49,21a18.67,18.67,0,0,1,2.15-2.36A18.67,18.67,0,0,0,82.49,21l-.87,1.45Zm-9.06-.43c-.11,1.39-.2,2.71-.26,4C73.23,23.24,73.32,21.92,73.43,20.53Zm-.12,20.84Q73,36.8,73,31.29,73,36.8,73.31,41.37Zm.26,3s0,.27.06.61C73.59,44.6,73.57,44.33,73.57,44.33Zm.17,1.81v0Zm.07-29.95q-.11,1.13-.21,2.22.11-1.1.21-2.22l.11-.94ZM19.64,14.77l0-.38V14c0-.76,0-1.56.09-2.42,0,.86-.07,1.66-.09,2.42v.35ZM19.52,32q-.06-3.15-.06-6.76Q19.46,28.85,19.52,32Zm29.92-7.31c0,.92,0,1.82,0,2.69,0-.87,0-1.77,0-2.69Zm0-1.09c0-.65,0-1.18,0-1.58C49.45,22.42,49.44,23,49.44,23.6Zm.15,10.94c.11,2.89.25,5.73.44,8.54-.19-2.81-.33-5.65-.44-8.54,0-.72-.05-1.46-.06-2.23C49.54,33.08,49.57,33.82,49.59,34.54Zm.61,11.21c0,.38,0,1,.11,1.89C50.25,46.76,50.22,46.13,50.2,45.75ZM28,47.64h0a26,26,0,0,1-2.53.88A26,26,0,0,0,28,47.64ZM114.6,31.92a13.75,13.75,0,0,0-.13-1.44,13.75,13.75,0,0,1,.13,1.44Z"/><path class="a" d="M161.32,44.67a17.4,17.4,0,0,1-4.2,1.76,18.07,18.07,0,0,1-4.47.51,16.06,16.06,0,0,1-2-.13V17.47a9.86,9.86,0,0,1,2.62-.35,16.53,16.53,0,0,1,4.36.56,17.52,17.52,0,0,1,4.06,1.73,22.23,22.23,0,0,1,4,3l1.61-4.28a18.56,18.56,0,0,0-3.88-2.25,25.26,25.26,0,0,0-4.6-1.46,23.19,23.19,0,0,0-4.93-.54q-9.57,0-14.69,7A14.79,14.79,0,0,0,138,22.69l0,.1A18.32,18.32,0,0,0,137,39.86,17.42,17.42,0,0,0,141.56,46a18.2,18.2,0,0,0,12.16,4.07,23,23,0,0,0,7.13-1.05,24.92,24.92,0,0,0,6.46-3.31l-1.61-4.07A31,31,0,0,1,161.32,44.67Z"/><path class="a" d="M196.63,14.21l-1.36.31A15.79,15.79,0,0,0,188.1,19l0-.24c0-.17.1-1.27.31-3.3l.11-.88H171.14l.07.77.14,1.48q0,.35,0,.66l.16,1.71,0,.54c.3,3.47.46,7.26.46,11.38q0,5.48-.43,12.33c-.09,1.68-.24,3.52-.45,5.51h17.42a2.7,2.7,0,0,1,0-.49l-.17-1.69c0-.09,0-.2,0-.31a4.07,4.07,0,0,1,0-.41h0c-.12-1.72-.39-4.23-.43-5-.22-3.09-.32-6.24-.32-9.44,0-.17,0-1.65.07-4.46v-.25a8.92,8.92,0,0,1,6.29-2.67,8.56,8.56,0,0,1,5.72,2.35V13.75A12,12,0,0,0,196.63,14.21Z"/><path class="a" d="M241.89,14.56H235.6A39.81,39.81,0,0,1,234,24.09a47.24,47.24,0,0,1-3.93,9.4l-.84-1.69q-3.69-7.49-4.64-9.59c-.63-1.4-1.55-3.57-2.74-6.49l-.46-1.16H201.78l.53.7c.44.61,1,1.35,1.54,2.21l1,1.44h0a233.79,233.79,0,0,1,13,23.85q2,4.08,2.78,6.18a35.53,35.53,0,0,1-3.48,4.94,31.71,31.71,0,0,1-4.07,4,12.26,12.26,0,0,1-7.66,3.13,11.18,11.18,0,0,1-2.21-.28v6.28a7.92,7.92,0,0,0,1.12.07q5.58,0,10.68-5.23A89.05,89.05,0,0,0,224.12,50l.74-1.09h0a176.87,176.87,0,0,0,10.61-18.5A102.21,102.21,0,0,0,241.89,14.56Z"/><path class="a" d="M322.58,11c0-2.41.37-4.12,1-5.11A3.77,3.77,0,0,1,327,4.37a11.88,11.88,0,0,1,5.09,1.3V1a23.9,23.9,0,0,0-8.82-1.4A24.17,24.17,0,0,0,315.72.65a17.51,17.51,0,0,0-5.82,3.27l-1.23,1.44A8.63,8.63,0,0,0,307,8.64a18.63,18.63,0,0,0-.49,4.76v1.16H302.6v3.86h4.14v.25c.05,2.43.07,4.3.07,5.62q0,13.91-.91,23.88l-.07.77h17.45c-.09-1-.15-1.93-.17-2.91L323,44.59l-.1-1.27q-.57-7.83-.56-17.7,0-3.61,0-5.55l0-.81v-.84h8.25V14.56h-8.15c0-.31,0-.62,0-1Z"/><path class="a" d="M299.5,24.8A17.83,17.83,0,0,0,295,19a21.18,21.18,0,0,0-6.67-3.84,23.81,23.81,0,0,0-8.22-1.39,26.14,26.14,0,0,0-6.76.86,22.43,22.43,0,0,0-5.83,2.46,16.32,16.32,0,0,0-4.34,3.78l-1.09,1.47a16.91,16.91,0,0,0-3.19,9.83,15.64,15.64,0,0,0,2.79,9,19.21,19.21,0,0,0,7.64,6.48A23.72,23.72,0,0,0,279.94,50a25.5,25.5,0,0,0,6.6-.83,21.56,21.56,0,0,0,5.74-2.45,20.2,20.2,0,0,0,4.73-4l1.12-1.47a16.11,16.11,0,0,0,2.28-4.37,15.64,15.64,0,0,0,.71-4.87A16.17,16.17,0,0,0,299.5,24.8ZM280.11,47a21.45,21.45,0,0,1-4-.36V17.26a18.54,18.54,0,0,1,4.21-.52,17.44,17.44,0,0,1,3.65.36V46.59A20,20,0,0,1,280.11,47Z"/><path class="a" d="M360.29,14.56a4,4,0,0,1,0,.46c0,.18,0,.33,0,.45,0,.61.07,1,.09,1.21s0,.34,0,.42a3.66,3.66,0,0,0,0,.37l0,1.44L360.6,20q.6,8.85.6,17.56c0,1.61,0,3.1,0,4.46,0,.72,0,1.74-.06,3s-.06,2.49-.08,3.6L361,51.54c-.1,4.38-.47,7.15-1.13,8.32q-1.47,2.53-5.69,2.53a15.36,15.36,0,0,1-4.35-.63v3.76A25,25,0,0,0,354.91,67a33.55,33.55,0,0,0,5.94.52,26.47,26.47,0,0,0,5.29-.47,17.69,17.69,0,0,0,4.25-1.42A15.17,15.17,0,0,0,374,63l1.19-1.51a5.36,5.36,0,0,0,1.48-2.37,14.78,14.78,0,0,0,.38-3.91c0-.68,0-1.28,0-1.79,0-.82,0-1.64,0-2.46l-.1-3.3q-.13-6.18-.14-9c0-1.39,0-3.16.05-5.32s.09-4.34.16-6.5.15-4,.24-5.45.24-3.44.43-6l.07-.91Z"/><polygon class="a" points="379.15 9.15 372.65 -0.05 370.61 1.99 369.56 3.07 359.76 13.05 364.99 12.03 379.15 9.15"/><path class="a" d="M405.74,47.29c-.05.35-.08.63-.11.84l-.07.81H423a4,4,0,0,1,0-.49l-.18-1.69a1.72,1.72,0,0,0,0-.31c0-.12,0-.26,0-.42l-.14-1.44a112.49,112.49,0,0,1-.64-12.4V30.75c0-.47,0-1.2,0-2.18.05-1.83.07-3.1.07-3.83a14.66,14.66,0,0,0-.3-3.35,6.7,6.7,0,0,0-1-2.23,10.14,10.14,0,0,0-3.49-3,19.25,19.25,0,0,0-5.46-1.95,31.75,31.75,0,0,0-6.64-.67,42.58,42.58,0,0,0-13.84,2.35v5A23.52,23.52,0,0,1,398.1,18a53.61,53.61,0,0,1,7.67-1.13l.14,1.93q.39,4.95.5,9.17v.25a.12.12,0,0,0-.09,0h-.09l-.28-.1a22.42,22.42,0,0,0-4.2-.88,39.19,39.19,0,0,0-5.35-.36,21,21,0,0,0-7,1.08,12.43,12.43,0,0,0-5,3.14l-1.26,1.44a9,9,0,0,0-1.93,5.83A10,10,0,0,0,385,46.39a15.06,15.06,0,0,0,9.92,3.18,19.05,19.05,0,0,0,10.89-3.23v.25A6,6,0,0,1,405.74,47.29Zm-.11-4-.31.21a19.73,19.73,0,0,1-6.64,2.86V29.94a29.17,29.17,0,0,1,7.3,1l.46.14v.22c0,3.23-.13,7-.39,11.48V43l-.21.14Z"/><path class="a" d="M447,46l.44-1.43c.56-1.6,1.55-3.89,3-6.89q4.18-8.85,7.66-15.13,2.52-4.58,4.88-8H428.5v4.78a73,73,0,0,1,13.73-1.94l-.53,1.51q-1.44,3.9-4.7,10.64-2.56,5.21-4.82,9.31c-1.49,2.74-3.29,5.83-5.37,9.27l-.46.81H463V43.29a39.69,39.69,0,0,1-8.06,2.16A50.18,50.18,0,0,1,447,46Z"/><path class="a" d="M484.23,46l.28-1.42c.56-1.6,1.55-3.89,2.95-6.89q4.19-8.85,7.66-15.13,2.52-4.58,4.88-8H465.55v4.78a57.65,57.65,0,0,1,7.81-1.43,44,44,0,0,1,5.65-.4l-.26,1.4q-1.44,3.9-4.7,10.64-2.57,5.21-4.81,9.31t-5.38,9.27l-.45.81H500V43.29a39.69,39.69,0,0,1-8.06,2.16A45.53,45.53,0,0,1,484.23,46Z"/><path class="a" d="M20.18,46.48,20,43.74l-.27-6q-.26-5.31-.25-12.55c0-2.32,0-4,0-5l0-.73v-.73H28.7v-4H19.64l0-.38V14c0-.76,0-1.56.09-2.42s0-1.45,0-1.79L20,5.75v-1H3.77c0,.35,0,.74,0,1.18V9.07c0,1,0,2.58,0,4.63v1.07H0v4H3.84V27c0,1,0,1.81,0,2.6,0,.6,0,1.28,0,2.05s0,1.37-.06,1.78c0,1,0,2,0,2.94s0,1.71-.05,2.15V39a24.76,24.76,0,0,0,.21,3.55,6.39,6.39,0,0,0,.76,2.33,8,8,0,0,0,1.62,1.87q3.53,2.89,10.37,2.9a28.71,28.71,0,0,0,13.35-2.9V42.43A23.85,23.85,0,0,1,20.18,46.48Z"/><path class="a" d="M56.8,48.61H74l-.06-.48-.14-1.66s-.21-2.14-.21-2.14a129.15,129.15,0,0,1-.59-13q0-3,.19-6.79t.64-8.31l.11-.94a39.71,39.71,0,0,0-8.58-1,37.24,37.24,0,0,0-8.71,1A26.26,26.26,0,0,0,49.54,18v-.24q.18-8.85.76-15.39l.07-.89H33.22c0,.16,0,.31,0,.44s0,.29,0,.45c.09.93.14,1.58.14,2l.1,1.42.07,1q.59,9.27.59,17.7,0,6.84-.23,13.09t-.64,10.32l-.07.75H50.37c-.09-1.4-.15-2.36-.17-2.86l-.11-1.42L50,43.08c-.19-2.81-.33-5.65-.44-8.54s-.15-6.16-.15-9.85c0-1.56,0-2.63,0-3.18v-.24l.11-.07.27-.17a24.13,24.13,0,0,1,4.69-2c.81-.27,1.65-.5,2.52-.71.14,1.2.35,3.14.36,3.89q.26,4.7.25,9,0,5.28-.42,12C57.14,45.36,57,47.16,56.8,48.61Z"/><path class="a" d="M107.51,43a19.35,19.35,0,0,1-11.3,3.56,18,18,0,0,1-1.83-.1V31.92H114.6a14.09,14.09,0,0,0-.4-2.84L114,27.63a17.23,17.23,0,0,0-6-10,16.46,16.46,0,0,0-5.06-2.8,19,19,0,0,0-14.09.87A17.43,17.43,0,0,0,82.49,21l-.87,1.45A17.56,17.56,0,0,0,78.93,32a18.4,18.4,0,0,0,1.33,7.1,16.44,16.44,0,0,0,3.84,5.64,17.09,17.09,0,0,0,5.84,3.66,20.71,20.71,0,0,0,7.38,1.26,23.4,23.4,0,0,0,16.23-6.43l-2-3.87A33.14,33.14,0,0,1,107.51,43ZM94.38,17.26a10.4,10.4,0,0,1,3-.45,12,12,0,0,1,3.94.67v11.6H94.38Z"/></svg>