<svg xmlns="http://www.w3.org/2000/svg" viewBox="0 0 143.21 48.22"><defs><style>.a{fill:#fff;}</style></defs><title>Artboard 2</title><rect class="a" y="0.08" width="15.31" height="48.23"/><rect class="a" x="18.07" y="0.08" width="15.23" height="48.23"/><path class="a" d="M36.06,0c4.93,0,9.39.92,12,4.15,2.39,2.77,3.7,8,3.7,13.16v31H36.06Z"/><rect class="a" x="54.52" y="0.08" width="15.31" height="48.23"/><rect class="a" x="72.59" y="0.08" width="15.23" height="48.23"/><path class="a" d="M90.58,0c4.92,0,9.39.92,12,4.15,2.38,2.77,3.69,8,3.69,13.16v31H90.58Z"/><path class="a" d="M109,17.31c0-5.16,1.3-10.39,3.69-13.16C115.34.92,119.8,0,124.73,0V48.31c-4.93,0-9.39-.92-12-4.15-2.39-2.77-3.69-8-3.69-13.16Z"/><path class="a" d="M127.49,0c4.92,0,9.38.92,12,4.15,2.38,2.77,3.69,8,3.69,13.16v4.76H127.49Z"/><rect class="a" x="127.49" y="24.74" width="15.7" height="23.57"/></svg>